HIERARCHY
ROOT joint_0
{
	OFFSET 0.000000 0.000000 0.000000
	CHANNELS 6 Xposition Yposition Zposition Zrotation Yrotation Xrotation 
	JOINT joint_1
	{
		OFFSET 8.185791 -2.713684 100.414917
		CHANNELS 3 Zrotation Yrotation Xrotation
		JOINT joint_2
		{
			OFFSET -4.376465 -1.111145 91.934082
			CHANNELS 3 Zrotation Yrotation Xrotation
			JOINT joint_3
			{
				OFFSET -6.985840 -1.054016 91.669922
				CHANNELS 3 Zrotation Yrotation Xrotation
				JOINT joint_4
				{
					OFFSET 0.150391 -4.451904 123.526001
					CHANNELS 3 Zrotation Yrotation Xrotation
					JOINT joint_5
					{
						OFFSET 19.754150 -8.123901 80.916992
						CHANNELS 3 Zrotation Yrotation Xrotation
						End Site
						{
							OFFSET 0.000000 0.000000 0.000000
						}
					}
				}
				JOINT joint_6
				{
					OFFSET -6.477539 -28.517334 68.237061
					CHANNELS 3 Zrotation Yrotation Xrotation
					JOINT joint_7
					{
						OFFSET -20.564453 -115.426208 -21.139038
						CHANNELS 3 Zrotation Yrotation Xrotation
						JOINT joint_8
						{
							OFFSET 18.981934 -19.826172 -267.898926
							CHANNELS 3 Zrotation Yrotation Xrotation
							JOINT joint_9
							{
								OFFSET 11.562744 -19.325867 -235.478027
								CHANNELS 3 Zrotation Yrotation Xrotation
								End Site
								{
									OFFSET 0.000000 0.000000 0.000000
								}
							}
						}
					}
				}
				JOINT joint_10
				{
					OFFSET 7.033936 23.504700 70.088989
					CHANNELS 3 Zrotation Yrotation Xrotation
					JOINT joint_11
					{
						OFFSET 36.629639 112.486816 -14.036987
						CHANNELS 3 Zrotation Yrotation Xrotation
						JOINT joint_12
						{
							OFFSET 41.355225 -7.048523 -266.019897
							CHANNELS 3 Zrotation Yrotation Xrotation
							JOINT joint_13
							{
								OFFSET 5.858887 29.785156 -234.603027
								CHANNELS 3 Zrotation Yrotation Xrotation
								End Site
								{
									OFFSET 0.000000 0.000000 0.000000
								}
							}
						}
					}
				}
			}
		}
	}
	JOINT joint_14
	{
		OFFSET -8.917725 -79.985535 -99.035034
		CHANNELS 3 Zrotation Yrotation Xrotation
		JOINT joint_15
		{
			OFFSET -32.739502 -31.478882 -502.570984
			CHANNELS 3 Zrotation Yrotation Xrotation
			JOINT joint_16
			{
				OFFSET 7.393066 -29.352966 -399.008011
				CHANNELS 3 Zrotation Yrotation Xrotation
				JOINT joint_17
				{
					OFFSET 178.013916 -26.060303 -71.875002
					CHANNELS 3 Zrotation Yrotation Xrotation
					End Site
					{
						OFFSET 0.000000 0.000000 0.000000
					}
				}
			}
		}
	}
	JOINT joint_18
	{
		OFFSET 1.900879 81.159851 -98.481018
		CHANNELS 3 Zrotation Yrotation Xrotation
		JOINT joint_19
		{
			OFFSET -15.120850 31.602051 -503.400024
			CHANNELS 3 Zrotation Yrotation Xrotation
			JOINT joint_20
			{
				OFFSET -16.653076 23.887695 -399.091988
				CHANNELS 3 Zrotation Yrotation Xrotation
				JOINT joint_21
				{
					OFFSET 179.618164 -1.217651 -72.592001
					CHANNELS 3 Zrotation Yrotation Xrotation
					End Site
					{
						OFFSET 0.000000 0.000000 0.000000
					}
				}
			}
		}
	}
}
MOTION
Frames: 9
Frame Time: 0.016667
-2897.060791 614.403748 1095.659058 -1.121827 1.843602 0.077661 0.904793 2.843510 -1.834925 0.973058 -0.597628 0.434911 0.937115 0.689028 -0.221253 0.034584 -4.519832 -1.939771 0.000000 0.000000 0.000000 -2.907135 0.566455 0.060731 0.298083 -0.631673 3.499878 0.250377 -2.360294 1.052942 0.000000 0.000000 0.000000 3.128200 5.840306 1.166564 -1.170078 3.816728 6.031322 -2.701645 -17.573693 -10.326522 0.000000 0.000000 0.000000 1.672624 -2.527430 -2.296753 0.799167 5.474883 3.535213 1.339739 -2.427774 0.182831 0.000000 0.000000 0.000000 2.352681 0.015875 0.566349 2.573631 2.116668 -2.430792 2.185760 -2.173466 0.866605 0.000000 0.000000 0.000000 
-2890.278809 611.521973 1096.331055 -2.321682 3.164911 0.172434 1.130035 2.083770 -2.393748 1.244347 -0.465683 0.656279 1.168365 0.513959 -0.454081 0.034761 -5.276240 -2.237874 0.000000 0.000000 0.000000 -3.177273 1.373618 -0.042405 0.292278 0.036417 3.928410 0.438711 -3.945130 2.018260 0.000000 0.000000 0.000000 2.520464 6.509244 1.825768 -1.085972 4.133962 8.067028 -3.181433 -23.602870 -14.076030 0.000000 0.000000 0.000000 2.059946 -4.486371 -2.234865 0.980364 7.097935 3.406265 1.699836 -3.210352 0.211770 0.000000 0.000000 0.000000 2.681677 -1.226805 0.423054 3.014876 2.778901 -2.238728 2.581381 -2.316184 1.023932 0.000000 0.000000 0.000000 
-2882.560547 608.803894 1097.234009 -3.384830 4.259003 0.282602 1.435145 1.590004 -2.897794 1.591462 -0.377156 0.872987 1.478757 0.368794 -0.655113 0.035138 -5.879701 -2.474499 0.000000 0.000000 0.000000 -3.366342 2.288663 -0.301816 0.303421 0.800616 4.356097 0.628809 -5.571895 2.831030 0.000000 0.000000 0.000000 1.912498 6.912618 2.806883 -0.711715 4.373026 9.928317 -3.413842 -30.666440 -18.771875 0.000000 0.000000 0.000000 2.377063 -6.250878 -2.180692 1.089529 9.007382 3.260854 2.011354 -4.091719 0.205653 0.000000 0.000000 0.000000 2.931126 -2.414838 0.155901 3.398109 3.944240 -1.793168 2.896253 -2.600858 1.146577 0.000000 0.000000 0.000000 
-2874.040283 606.868835 1098.395020 -4.132872 4.853114 0.430532 1.805540 1.673589 -3.196735 1.979261 -0.381839 1.030622 1.842282 0.340963 -0.774448 0.034073 -6.227486 -2.610654 0.000000 0.000000 0.000000 -3.319419 3.269067 -0.930137 0.347573 1.580425 4.945998 0.774669 -7.115732 3.039416 0.000000 0.000000 0.000000 1.485564 6.680557 4.351365 -0.029295 4.325294 11.277065 -3.439986 -38.802877 -24.943562 0.000000 0.000000 0.000000 2.553464 -7.467334 -2.175635 1.075498 11.113402 3.129958 2.203515 -4.974283 0.150468 0.000000 0.000000 0.000000 3.035833 -3.407744 -0.315737 3.657790 5.890788 -0.921461 3.058611 -3.081539 1.204490 0.000000 0.000000 0.000000 
-2864.678467 605.419067 1099.821045 -4.698568 5.084950 0.605225 2.282060 2.195229 -3.312835 2.447112 -0.455205 1.101894 2.297664 0.405359 -0.834406 0.023992 -6.394858 -2.614182 0.000000 0.000000 0.000000 -3.144032 4.355785 -1.786417 0.420961 2.432031 5.687242 0.888967 -8.696856 2.801838 0.000000 0.000000 0.000000 1.133180 5.942855 5.633820 1.247926 3.611407 13.071124 -3.147217 -48.435350 -32.790594 0.000000 0.000000 0.000000 2.633584 -8.341500 -2.174132 0.967199 13.496307 2.965568 2.304257 -5.879917 0.054232 0.000000 0.000000 0.000000 3.058807 -4.305695 -0.954305 3.857711 8.528558 0.315600 3.145614 -3.607767 1.228689 0.000000 0.000000 0.000000 
-2854.190674 603.995422 1101.333008 -4.928210 5.151511 0.749290 2.688476 2.833728 -3.213453 2.824652 -0.548926 1.062186 2.676507 0.499722 -0.820374 0.006806 -6.429472 -2.507071 0.000000 0.000000 0.000000 -2.961296 5.389080 -2.534317 0.486303 3.318107 6.115199 0.974420 -10.079601 2.505612 0.000000 0.000000 0.000000 0.812610 4.938443 6.517825 2.969019 2.732904 14.427227 -2.458049 -57.288828 -40.796973 0.000000 0.000000 0.000000 2.632753 -8.966316 -2.158429 0.785802 15.926531 2.842435 2.308931 -6.617133 -0.056434 0.000000 0.000000 0.000000 2.935884 -5.059158 -1.458691 3.912541 11.271523 1.454323 3.095234 -3.925221 1.197147 0.000000 0.000000 0.000000 
-2842.329346 602.329285 1102.808960 -4.632574 5.138271 0.867306 2.892348 3.404846 -2.925768 2.991740 -0.641623 0.947168 2.856942 0.593553 -0.722067 -0.010089 -6.293806 -2.336013 0.000000 0.000000 0.000000 -2.778126 6.283181 -3.002878 0.502682 4.233673 5.871974 1.033474 -11.153297 2.422755 0.000000 0.000000 0.000000 0.437270 4.011478 7.644488 4.872271 2.591228 14.246631 -1.516916 -64.436942 -48.821184 0.000000 0.000000 0.000000 2.502586 -9.252637 -2.169828 0.502013 18.075797 2.871965 2.174119 -7.058370 -0.179060 0.000000 0.000000 0.000000 2.547213 -5.616120 -1.670894 3.690681 13.805405 2.214602 2.774867 -3.979790 1.060936 0.000000 0.000000 0.000000 
-2829.196289 600.588867 1104.318970 -3.877660 4.968089 0.974018 2.962978 4.023144 -2.432557 3.016826 -0.752509 0.749091 2.909814 0.710919 -0.537997 -0.031935 -5.979738 -2.076858 0.000000 0.000000 0.000000 -2.529154 7.124927 -3.312345 0.480871 5.205800 5.150063 1.062963 -12.019662 2.407255 0.000000 0.000000 0.000000 0.009662 3.027858 9.036112 7.343640 3.020473 12.919149 -0.364266 -71.088229 -58.194043 0.000000 0.000000 0.000000 2.237322 -9.163129 -2.211514 0.106042 20.020358 3.048347 1.909079 -7.255450 -0.316805 0.000000 0.000000 0.000000 1.914007 -5.988092 -1.704112 3.218557 16.335735 2.763386 2.196561 -3.834536 0.827062 0.000000 0.000000 0.000000 
-2815.096436 598.673157 1105.866943 -2.995713 4.839631 0.997425 2.967106 4.502106 -1.760901 2.953977 -0.827553 0.496570 2.876263 0.813521 -0.343895 -0.057513 -5.701819 -1.819403 0.000000 0.000000 0.000000 -2.359606 7.903962 -3.483872 0.473530 6.112086 4.289063 1.071277 -12.566971 2.378734 0.000000 0.000000 0.000000 -0.322262 2.051816 10.173831 10.690229 3.539934 11.614309 0.993701 -77.838077 -67.985379 0.000000 0.000000 0.000000 2.073134 -9.387939 -2.248998 -0.231699 22.597303 3.312824 1.781324 -7.262317 -0.374654 0.000000 0.000000 0.000000 1.260136 -6.273914 -1.567678 2.727463 18.613605 3.098226 1.616820 -3.480800 0.598171 0.000000 0.000000 0.000000 
